# xmcd
#
# Track frame offsets: 
#        180
#        30717
#        60604
#        85785
#        114757
#        142099
#        164529
#        194254
#        221857
#        248887
#
# Disc length: 3807 seconds
#
# Revision: 1
# Processed by: cddbd v1.5.2PL0 Copyright (c) Steve Scherf et al.
# Submitted via: ExactAudioCopy v0.95b4
#
DISCID=8d0edd0a
DTITLE=Guayacan - Como En Un Baile
DYEAR=1996
DGENRE=Latin
TTITLE0=Guayacan Cubano
TTITLE1=Guayacan Cumbiambero
TTITLE2=Guayacan Venezolano
TTITLE3=Guayacan Mix
TTITLE4=Guayacan Pasodobles
TTITLE5=Guayacan Vallenato
TTITLE6=Guayacan Dominicano
TTITLE7=Guayacan Currulao
TTITLE8=Guayacan De Serenata
TTITLE9=Guayacan Cumbiando
EXTD=YEAR: 1996
EXTT0=
EXTT1=
EXTT2=
EXTT3=
EXTT4=
EXTT5=
EXTT6=
EXTT7=
EXTT8=
EXTT9=
PLAYORDER=
